<svg width="24" height="24" viewBox="0 0 24 24" fill="none" xmlns="http://www.w3.org/2000/svg">
<path d="M0 12C0 18.6157 5.38139 23.9983 11.9967 24L13.3304 22.2023V1.75582L11.9967 0C5.38139 0.00186719 0 5.3843 0 12Z" fill="#D9E4FF"/>
<path d="M11.9994 0C11.9984 0 11.9972 0 11.9961 0V24H11.9994C18.6162 24 23.9995 18.6168 23.9995 11.9999C23.9995 5.38296 18.6162 0 11.9994 0Z" fill="#D9E4FF"/>
<path d="M12.1535 5.92651C12.2124 9.20902 14.9273 11.814 18.0877 11.8658C18.4774 11.8722 18.7803 12.1993 18.7476 12.5877C18.4595 16.0152 15.5639 18.7511 12.0209 18.7526L10.6872 11.2713L12.0209 5.53613C12.1017 5.6447 12.1508 5.77927 12.1535 5.92651Z" fill="#4D5B98"/>
<path d="M11.4353 5.27096C11.6748 5.25082 11.8915 5.35885 12.0234 5.53623V18.7527H12.0208C8.29065 18.7527 5.26887 15.7293 5.26887 12.0008C5.26887 8.41063 8.04978 5.55504 11.4353 5.27096Z" fill="#4D5B98"/>
</svg>
