<svg width="32" height="32" viewBox="0 0 32 32" fill="none" xmlns="http://www.w3.org/2000/svg">
<rect width="32" height="32" rx="16" fill="#F1F0EE"/>
<path d="M15.9971 20.2677C18.3536 20.2677 20.2638 18.3575 20.2638 16.001C20.2638 13.6446 18.3536 11.7344 15.9971 11.7344C13.6407 11.7344 11.7305 13.6446 11.7305 16.001C11.7305 18.3575 13.6407 20.2677 15.9971 20.2677Z" fill="#FFD60A"/>
<path d="M16.0002 9.6003C15.8116 9.6003 15.6307 9.52538 15.4973 9.39202C15.364 9.25867 15.2891 9.07779 15.2891 8.88919V7.46697C15.2891 7.27837 15.364 7.0975 15.4973 6.96414C15.6307 6.83078 15.8116 6.75586 16.0002 6.75586C16.1888 6.75586 16.3696 6.83078 16.503 6.96414C16.6364 7.0975 16.7113 7.27837 16.7113 7.46697V8.88919C16.7113 9.07779 16.6364 9.25867 16.503 9.39202C16.3696 9.52538 16.1888 9.6003 16.0002 9.6003Z" fill="#FFBB0A"/>
<path d="M16.0002 25.2448C15.8116 25.2448 15.6307 25.1699 15.4973 25.0366C15.364 24.9032 15.2891 24.7223 15.2891 24.5337V23.1115C15.2891 22.9229 15.364 22.742 15.4973 22.6087C15.6307 22.4753 15.8116 22.4004 16.0002 22.4004C16.1888 22.4004 16.3696 22.4753 16.503 22.6087C16.6364 22.742 16.7113 22.9229 16.7113 23.1115V24.5337C16.7113 24.7223 16.6364 24.9032 16.503 25.0366C16.3696 25.1699 16.1888 25.2448 16.0002 25.2448Z" fill="#FFBB0A"/>
<path d="M8.88724 16.7113H7.46502C7.27642 16.7113 7.09555 16.6364 6.96219 16.503C6.82883 16.3696 6.75391 16.1888 6.75391 16.0002C6.75391 15.8116 6.82883 15.6307 6.96219 15.4973C7.09555 15.364 7.27642 15.2891 7.46502 15.2891H8.88724C9.07584 15.2891 9.25671 15.364 9.39007 15.4973C9.52343 15.6307 9.59835 15.8116 9.59835 16.0002C9.59835 16.1888 9.52343 16.3696 9.39007 16.503C9.25671 16.6364 9.07584 16.7113 8.88724 16.7113Z" fill="#FFBB0A"/>
<path d="M24.5318 16.7113H23.1095C22.921 16.7113 22.7401 16.6364 22.6067 16.503C22.4734 16.3696 22.3984 16.1888 22.3984 16.0002C22.3984 15.8116 22.4734 15.6307 22.6067 15.4973C22.7401 15.364 22.921 15.2891 23.1095 15.2891H24.5318C24.7204 15.2891 24.9012 15.364 25.0346 15.4973C25.168 15.6307 25.2429 15.8116 25.2429 16.0002C25.2429 16.1888 25.168 16.3696 25.0346 16.503C24.9012 16.6364 24.7204 16.7113 24.5318 16.7113Z" fill="#FFBB0A"/>
<path d="M9.96238 22.7494C9.77481 22.7467 9.59589 22.67 9.4646 22.536C9.33215 22.4028 9.25781 22.2226 9.25781 22.0347C9.25781 21.8468 9.33215 21.6666 9.4646 21.5334L10.4673 20.5236C10.6012 20.3897 10.7828 20.3145 10.9722 20.3145C11.1615 20.3145 11.3431 20.3897 11.477 20.5236C11.6109 20.6575 11.6862 20.8391 11.6862 21.0285C11.6862 21.2178 11.6109 21.3995 11.477 21.5334L10.4673 22.536C10.4014 22.6032 10.3229 22.6567 10.2362 22.6933C10.1495 22.7299 10.0565 22.749 9.96238 22.7494Z" fill="#FFBB0A"/>
<path d="M21.0277 11.6846C20.9341 11.6851 20.8414 11.6672 20.7547 11.6318C20.6681 11.5964 20.5893 11.5443 20.5228 11.4784C20.4562 11.4123 20.4033 11.3336 20.3672 11.2469C20.3311 11.1603 20.3125 11.0673 20.3125 10.9735C20.3125 10.8796 20.3311 10.7866 20.3672 10.7C20.4033 10.6133 20.4562 10.5347 20.5228 10.4686L21.5326 9.46591C21.6687 9.34941 21.8436 9.28854 22.0226 9.29545C22.2016 9.30237 22.3714 9.37656 22.498 9.5032C22.6246 9.62985 22.6988 9.79962 22.7058 9.97859C22.7127 10.1576 22.6518 10.3325 22.5353 10.4686L21.5326 11.4784C21.4662 11.5443 21.3874 11.5964 21.3007 11.6318C21.2141 11.6672 21.1213 11.6851 21.0277 11.6846Z" fill="#FFBB0A"/>
<path d="M22.0363 22.7494C21.9422 22.749 21.8491 22.7299 21.7625 22.6933C21.6758 22.6567 21.5973 22.6032 21.5314 22.536L20.5216 21.5334C20.4553 21.4671 20.4027 21.3883 20.3669 21.3017C20.331 21.2151 20.3125 21.1222 20.3125 21.0285C20.3125 20.9347 20.331 20.8419 20.3669 20.7552C20.4027 20.6686 20.4553 20.5899 20.5216 20.5236C20.5879 20.4573 20.6666 20.4047 20.7533 20.3688C20.8399 20.3329 20.9328 20.3145 21.0265 20.3145C21.1203 20.3145 21.2131 20.3329 21.2998 20.3688C21.3864 20.4047 21.4651 20.4573 21.5314 20.5236L22.5341 21.5334C22.6665 21.6666 22.7409 21.8468 22.7409 22.0347C22.7409 22.2226 22.6665 22.4028 22.5341 22.536C22.4028 22.67 22.2239 22.7467 22.0363 22.7494Z" fill="#FFBB0A"/>
<path d="M10.9715 11.6846C10.8779 11.6851 10.7852 11.6672 10.6985 11.6318C10.6119 11.5964 10.5331 11.5443 10.4666 11.4784L9.46396 10.4686C9.34746 10.3325 9.28659 10.1576 9.2935 9.97859C9.30041 9.79962 9.3746 9.62985 9.50125 9.5032C9.62789 9.37656 9.79766 9.30237 9.97663 9.29545C10.1556 9.28854 10.3306 9.34941 10.4666 9.46591L11.4764 10.4686C11.5431 10.5347 11.596 10.6133 11.6321 10.7C11.6682 10.7866 11.6868 10.8796 11.6868 10.9735C11.6868 11.0673 11.6682 11.1603 11.6321 11.2469C11.596 11.3336 11.5431 11.4123 11.4764 11.4784C11.41 11.5443 11.3312 11.5964 11.2445 11.6318C11.1579 11.6672 11.0651 11.6851 10.9715 11.6846Z" fill="#FFBB0A"/>
</svg>
