<svg width="32" height="33" viewBox="0 0 32 33" fill="none" xmlns="http://www.w3.org/2000/svg">
<path d="M16 32C24.5604 32 31.5 25.0604 31.5 16.5C31.5 7.93959 24.5604 1 16 1C7.43959 1 0.5 7.93959 0.5 16.5C0.5 25.0604 7.43959 32 16 32Z" fill="#EDDFDF"/>
<path d="M16.0012 17.2173L23.1586 11.3359C22.9047 11.1829 22.6074 11.0947 22.2898 11.0947H9.7125C9.39494 11.0947 9.09769 11.1829 8.84375 11.3359L16.0012 17.2173Z" fill="#FF6B6B"/>
<path d="M16.0008 18.2157L8.28783 11.8779C8.12195 12.1386 8.02539 12.4474 8.02539 12.7784V20.2198C8.02539 21.1484 8.78202 21.9039 9.71208 21.9039H22.2895C23.2195 21.9039 23.9761 21.1484 23.9761 20.2198V12.7784C23.9761 12.4473 23.8796 12.1386 23.7137 11.8779L16.0008 18.2157Z" fill="#FF6B6B"/>
</svg>
