<svg width="32" height="33" viewBox="0 0 32 33" fill="none" xmlns="http://www.w3.org/2000/svg">
<path d="M29.9899 16.5002C29.9899 18.1502 29.0699 19.6302 27.5799 20.3502L11.2999 28.2202C10.7099 28.5102 10.0699 28.6502 9.43992 28.6502C8.64992 28.6502 7.86992 28.4302 7.16992 28.0002C5.91992 27.2102 5.16992 25.8602 5.16992 24.3802C5.16992 23.0002 5.48992 21.6102 6.08992 20.3802L7.48992 17.5002V15.5002L6.08992 12.6202C5.48992 11.3902 5.16992 10.0002 5.16992 8.6202C5.16992 7.1402 5.91992 5.7902 7.16992 5.0002C8.41992 4.2202 9.96992 4.1302 11.2999 4.7802L27.5799 12.6502C29.0699 13.3702 29.9899 14.8502 29.9899 16.5002Z" fill="#FB3B2E"/>
<path d="M16.9998 16.5C16.9998 17.05 16.5498 17.5 15.9998 17.5H3.00977C2.44977 17.5 2.00977 17.05 2.00977 16.5C2.00977 15.95 2.44977 15.5 3.00977 15.5H15.9998C16.5498 15.5 16.9998 15.95 16.9998 16.5Z" fill="white"/>
</svg>
