<svg width="205" height="54" viewBox="0 0 205 54" fill="none" xmlns="http://www.w3.org/2000/svg">
<path d="M60.0645 9.06738V43.8281L50.6719 53.2412H36.1729V49.7139L32.6455 53.2412H18.1055V49.7139L14.5781 53.2412H0.0996094V18.46L9.5127 9.06738H60.0645ZM66.9551 8.34961C69.0195 8.34961 70.7764 9.08789 72.2256 10.5645C73.6885 12.041 74.4199 13.8184 74.4199 15.8965C74.4199 17.9883 73.6953 19.7588 72.2461 21.208L70.7285 22.7051H73.8047V43.8281L64.3916 53.2412H51.1641V32.1182L52.9688 30.3135C51.3418 28.7822 50.5283 26.9502 50.5283 24.8174C50.5283 23.8193 50.7266 22.8555 51.123 21.9258C51.5195 20.9961 52.0664 20.1826 52.7637 19.4854L61.6641 10.5645C63.1406 9.08789 64.9043 8.34961 66.9551 8.34961ZM101.982 16.6143V43.8281L92.5693 53.2412H79.2188C76.5391 53.2275 74.0713 52.5986 71.8154 51.3545C69.5459 50.1104 67.7549 48.4287 66.4424 46.3096C65.1299 44.2041 64.4736 41.9072 64.4736 39.4189C64.4736 37.5869 64.8223 35.8506 65.5195 34.21C66.2168 32.5693 67.2012 31.1133 68.4727 29.8418L77.373 20.9414C78.7129 19.5742 80.3125 18.5146 82.1719 17.7627C84.0449 16.9971 86.0273 16.6143 88.1191 16.6143H101.982ZM102.495 9.06738H115.292V16.6143H131.76V43.8281L122.347 53.2412H109.55V49.5908L105.879 53.2412H93.082V18.46L102.495 9.06738ZM149.827 16.6143C151.222 16.6143 152.603 16.9287 153.97 17.5576C155.337 18.1865 156.526 19.0137 157.538 20.0391C158.55 21.0508 159.37 22.2402 159.999 23.6074C160.628 24.9746 160.942 26.3555 160.942 27.75V43.8281L151.55 53.2412H122.777V32.1182L132.17 22.7051H135.328L141.419 16.6143H149.827ZM190.146 16.6143V37.7373L180.753 47.1504H177.595L171.504 53.2412H163.096C161.701 53.2412 160.32 52.9268 158.953 52.2979C157.586 51.6689 156.396 50.8418 155.385 49.8164C154.373 48.8047 153.553 47.6152 152.924 46.248C152.295 44.8809 151.98 43.5 151.98 42.1055V26.0273L161.394 16.6143H190.146ZM203.783 9.06738V43.8281L194.37 53.2412H181.143V18.46L190.556 9.06738H203.783Z" fill="#C94949"/>
<path d="M10.8408 42V8.4082H60.2236V42H46.9141V21.7178C46.9141 20.8975 46.6953 20.2275 46.2578 19.708C45.8203 19.1748 45.2598 18.9082 44.5762 18.9082C43.9336 18.9082 43.3799 19.1748 42.915 19.708C42.4502 20.2412 42.2178 20.9111 42.2178 21.7178V42H28.8672V21.7178C28.8672 20.8975 28.6484 20.2275 28.2109 19.708C27.7734 19.1748 27.2197 18.9082 26.5498 18.9082C25.8662 18.9082 25.292 19.1748 24.8271 19.708C24.376 20.2275 24.1504 20.8975 24.1504 21.7178V42H10.8408ZM61.9053 42V22.0459H73.9639V42H61.9053ZM61.2695 14.3965C61.2695 12.5508 61.9258 10.9717 63.2383 9.65918C64.5508 8.34668 66.123 7.69043 67.9551 7.69043C69.7734 7.69043 71.332 8.34668 72.6309 9.65918C73.9297 10.9717 74.5791 12.5508 74.5791 14.3965C74.5791 16.2285 73.9297 17.7939 72.6309 19.0928C71.332 20.3916 69.7734 21.041 67.9551 21.041C66.123 21.041 64.5508 20.3916 63.2383 19.0928C61.9258 17.7803 61.2695 16.2148 61.2695 14.3965ZM89.1191 42C87.2188 41.9863 85.4072 41.6377 83.6846 40.9541C81.9756 40.2568 80.499 39.3271 79.2549 38.165C78.0244 37.0029 77.04 35.6289 76.3018 34.043C75.5771 32.4434 75.2148 30.7686 75.2148 29.0186C75.2148 26.6123 75.8301 24.4111 77.0605 22.415C78.3047 20.4053 79.9863 18.8262 82.1055 17.6777C84.2383 16.5293 86.5762 15.9551 89.1191 15.9551H102.142V28.1367H93.1182C92.9268 27.4531 92.5439 26.8926 91.9697 26.4551C91.3955 26.0039 90.7393 25.7783 90.001 25.7783C89.126 25.7783 88.374 26.0928 87.7451 26.7217C87.1299 27.3369 86.8223 28.0889 86.8223 28.9775C86.8223 29.8799 87.1299 30.6455 87.7451 31.2744C88.3604 31.9033 89.1123 32.2178 90.001 32.2178C90.7393 32.2178 91.4023 31.9922 91.9902 31.541C92.5781 31.0898 92.9541 30.5156 93.1182 29.8184H102.142V42H89.1191ZM103.823 8.4082H115.451V15.9551H131.919V42H120.291V27.8496C120.291 27.1523 120.065 26.5713 119.614 26.1064C119.163 25.6416 118.589 25.4092 117.892 25.4092C117.194 25.4092 116.613 25.6416 116.148 26.1064C115.684 26.5713 115.451 27.1523 115.451 27.8496V42H103.823V8.4082ZM150.786 15.9551C152.071 15.9551 153.343 16.249 154.601 16.8369C155.858 17.4248 156.959 18.1904 157.902 19.1338C158.846 20.0771 159.604 21.1777 160.179 22.4355C160.767 23.6934 161.061 24.9648 161.061 26.25V42H133.478V22.0459H142.706V15.9551H150.786ZM144.183 31.2539C144.183 32.0879 144.483 32.7988 145.085 33.3867C145.687 33.9746 146.411 34.2686 147.259 34.2686C148.093 34.2686 148.804 33.9814 149.392 33.4072C149.979 32.8193 150.273 32.1016 150.273 31.2539C150.273 30.3926 149.979 29.668 149.392 29.0801C148.817 28.4785 148.106 28.1777 147.259 28.1777C146.411 28.1777 145.687 28.4785 145.085 29.0801C144.483 29.668 144.183 30.3926 144.183 31.2539ZM173.017 42C171.308 42 169.653 41.5146 168.054 40.5439C166.454 39.5596 165.162 38.2676 164.178 36.668C163.207 35.0684 162.722 33.4141 162.722 31.7051V15.9551H190.305V35.9092H181.076V42H173.017ZM173.509 26.7217C173.509 27.583 173.803 28.3076 174.391 28.8955C174.979 29.4834 175.696 29.7773 176.544 29.7773C177.392 29.7773 178.109 29.4834 178.697 28.8955C179.299 28.3076 179.6 27.583 179.6 26.7217C179.6 25.8877 179.299 25.1768 178.697 24.5889C178.109 23.9873 177.392 23.6865 176.544 23.6865C175.71 23.6865 174.992 23.9873 174.391 24.5889C173.803 25.1768 173.509 25.8877 173.509 26.7217ZM191.884 42V8.4082H203.942V42H191.884Z" fill="#FFD166"/>
</svg>
