<svg width="32" height="33" viewBox="0 0 32 33" fill="none" xmlns="http://www.w3.org/2000/svg">
<g clip-path="url(#clip0_113_139)">
<path fill-rule="evenodd" clip-rule="evenodd" d="M16 32.5C24.8366 32.5 32 25.3366 32 16.5C32 7.66344 24.8366 0.5 16 0.5C7.16344 0.5 0 7.66344 0 16.5C0 25.3366 7.16344 32.5 16 32.5Z" fill="#A5A5A5"/>
<path fill-rule="evenodd" clip-rule="evenodd" d="M13.5606 25.8423C13.5606 25.6025 13.5521 24.9678 13.5473 24.1249C10.8085 24.7348 10.2307 22.7714 10.2307 22.7714C9.7828 21.605 9.13725 21.2945 9.13725 21.2945C8.24327 20.6679 9.20495 20.6809 9.20495 20.6809C10.1932 20.7522 10.713 21.7215 10.713 21.7215C11.5913 23.2641 13.0172 22.8191 13.5787 22.5607C13.6682 21.908 13.9227 21.4631 14.2037 21.2108C12.0174 20.9561 9.71873 20.0897 9.71873 16.2211C9.71873 15.1192 10.1026 14.218 10.7324 13.5121C10.6314 13.2568 10.293 12.2304 10.8291 10.8403C10.8291 10.8403 11.656 10.5689 13.5364 11.8753C14.3216 11.6516 15.1642 11.5388 16.002 11.5351C16.8379 11.5388 17.6799 11.6516 18.4669 11.8753C20.3461 10.5689 21.1718 10.8403 21.1718 10.8403C21.7092 12.2298 21.3713 13.2561 21.2697 13.5121C21.9008 14.218 22.2816 15.1192 22.2816 16.2211C22.2816 20.0996 19.9792 20.953 17.7857 21.2028C18.1399 21.5145 18.4542 22.1305 18.4542 23.0726C18.4542 24.4224 18.4415 25.5113 18.4415 25.8423C18.4415 26.1125 18.6192 26.4261 19.1191 26.3276C23.0281 24.9901 25.8466 21.2083 25.8466 16.7498C25.8466 11.1737 21.4378 6.65381 16.0001 6.65381C10.5631 6.65381 6.1543 11.1737 6.1543 16.7498C6.1549 21.2096 8.97586 24.9938 12.8885 26.3288C13.3805 26.4212 13.5606 26.1094 13.5606 25.8423Z" fill="black"/>
</g>
<defs>
<clipPath id="clip0_113_139">
<rect width="32" height="32" fill="white" transform="translate(0 0.5)"/>
</clipPath>
</defs>
</svg>
