<svg width="32" height="33" viewBox="0 0 32 33" fill="none" xmlns="http://www.w3.org/2000/svg">
<g clip-path="url(#clip0_99_117)">
<path d="M16 32.4995C24.8366 32.4995 32 25.3361 32 16.4995C32 7.66296 24.8366 0.499512 16 0.499512C7.16344 0.499512 0 7.66296 0 16.4995C0 25.3361 7.16344 32.4995 16 32.4995Z" fill="#007AB9"/>
<path d="M25.5603 17.7868V24.3832H21.7359V18.2289C21.7359 16.6836 21.1837 15.6283 19.799 15.6283C18.7423 15.6283 18.1145 16.3388 17.8373 17.0267C17.7366 17.2725 17.7106 17.614 17.7106 17.9588V24.383H13.8859C13.8859 24.383 13.9373 13.9595 13.8859 12.8805H17.7109V14.5105C17.7032 14.5234 17.6924 14.5359 17.6856 14.5482H17.7109V14.5105C18.2192 13.7285 19.1256 12.6104 21.1578 12.6104C23.6739 12.6104 25.5603 14.2544 25.5603 17.7868ZM9.88492 7.33594C8.57663 7.33594 7.7207 8.19472 7.7207 9.32303C7.7207 10.4274 8.55182 11.311 9.83472 11.311H9.85953C11.1935 11.311 12.0229 10.4274 12.0229 9.32303C11.9975 8.19472 11.1935 7.33594 9.88492 7.33594ZM7.94802 24.3832H11.7713V12.8805H7.94802V24.3832Z" fill="#F1F2F2"/>
</g>
<defs>
<clipPath id="clip0_99_117">
<rect width="32" height="32" fill="white" transform="translate(0 0.5)"/>
</clipPath>
</defs>
</svg>
