<svg width="150" height="60" viewBox="0 0 150 60" fill="none" xmlns="http://www.w3.org/2000/svg">
<path d="M38.9979 4.83838V25.482L33.4198 31.0722H24.8092V28.9774L22.7144 31.0722H14.0794V28.9774L11.9846 31.0722H3.38614V10.4164L8.97635 4.83838H38.9979ZM43.09 4.41211C44.3161 4.41211 45.3594 4.85056 46.2201 5.72746C47.0889 6.60435 47.5232 7.65987 47.5232 8.89402C47.5232 10.1363 47.0929 11.1878 46.2323 12.0484L45.331 12.9375H47.1579V25.482L41.5677 31.0722H33.7121V18.5277L34.7839 17.4559C33.8177 16.5466 33.3346 15.4586 33.3346 14.1919C33.3346 13.5992 33.4523 13.0268 33.6878 12.4747C33.9232 11.9226 34.248 11.4395 34.6621 11.0254L39.9478 5.72746C40.8247 4.85056 41.8721 4.41211 43.09 4.41211ZM63.892 9.32029V25.482L58.3018 31.0722H50.3732C48.7817 31.0641 47.3162 30.6906 45.9765 29.9517C44.6287 29.2128 43.565 28.2142 42.7856 26.9556C42.0061 25.7053 41.6164 24.3412 41.6164 22.8635C41.6164 21.7755 41.8234 20.7443 42.2375 19.77C42.6516 18.7956 43.2362 17.9309 43.9913 17.1758L49.277 11.8901C50.0727 11.0781 51.0227 10.4489 52.1269 10.0023C53.2393 9.54764 54.4166 9.32029 55.6589 9.32029H63.892ZM64.1964 4.83838H71.7962V9.32029H81.576V25.482L75.9858 31.0722H68.3861V28.9043L66.206 31.0722H58.6062V10.4164L64.1964 4.83838ZM92.3058 9.32029C93.134 9.32029 93.9541 9.50704 94.766 9.88053C95.578 10.254 96.2843 10.7452 96.8852 11.3542C97.486 11.955 97.9732 12.6614 98.3467 13.4734C98.7202 14.2853 98.9069 15.1054 98.9069 15.9336V25.482L93.3289 31.0722H76.2416V18.5277L81.8196 12.9375H83.6952L87.3124 9.32029H92.3058ZM116.25 9.32029V21.8648L110.672 27.455H108.796L105.179 31.0722H100.186C99.3575 31.0722 98.5375 30.8854 97.7255 30.5119C96.9136 30.1385 96.2072 29.6472 95.6064 29.0383C95.0055 28.4374 94.5184 27.7311 94.1449 26.9191C93.7714 26.1072 93.5846 25.2871 93.5846 24.4589V14.9105L99.1749 9.32029H116.25ZM124.349 4.83838V25.482L118.759 31.0722H110.903V10.4164L116.494 4.83838H124.349Z" fill="#C94949"/>
<path d="M9.46028 25V5.05061H38.7876V25H30.8833V12.9549C30.8833 12.4677 30.7534 12.0698 30.4936 11.7613C30.2338 11.4446 29.9009 11.2863 29.4949 11.2863C29.1133 11.2863 28.7845 11.4446 28.5084 11.7613C28.2324 12.078 28.0943 12.4758 28.0943 12.9549V25H20.1657V12.9549C20.1657 12.4677 20.0358 12.0698 19.776 11.7613C19.5162 11.4446 19.1873 11.2863 18.7895 11.2863C18.3835 11.2863 18.0425 11.4446 17.7664 11.7613C17.4985 12.0698 17.3645 12.4677 17.3645 12.9549V25H9.46028ZM39.7863 25V13.1497H46.9476V25H39.7863ZM39.4087 8.60692C39.4087 7.5108 39.7984 6.573 40.5779 5.79354C41.3574 5.01408 42.2911 4.62435 43.3791 4.62435C44.459 4.62435 45.3846 5.01408 46.1559 5.79354C46.9273 6.573 47.313 7.5108 47.313 8.60692C47.313 9.69492 46.9273 10.6246 46.1559 11.3959C45.3846 12.1673 44.459 12.5529 43.3791 12.5529C42.2911 12.5529 41.3574 12.1673 40.5779 11.3959C39.7984 10.6165 39.4087 9.6868 39.4087 8.60692ZM55.948 25C54.8194 24.9919 53.7435 24.7848 52.7205 24.3789C51.7056 23.9648 50.8287 23.4127 50.0898 22.7225C49.3591 22.0324 48.7745 21.2164 48.336 20.2745C47.9057 19.3245 47.6905 18.3299 47.6905 17.2906C47.6905 15.8616 48.0559 14.5544 48.7866 13.3689C49.5255 12.1754 50.5242 11.2376 51.7827 10.5556C53.0493 9.87354 54.4377 9.53253 55.948 9.53253H63.6817V16.7669H58.3229C58.2092 16.3609 57.9819 16.0281 57.6408 15.7682C57.2998 15.5003 56.9101 15.3663 56.4717 15.3663C55.952 15.3663 55.5054 15.5531 55.1319 15.9266C54.7666 16.2919 54.5839 16.7385 54.5839 17.2663C54.5839 17.8021 54.7666 18.2568 55.1319 18.6303C55.4973 19.0038 55.9439 19.1906 56.4717 19.1906C56.9101 19.1906 57.3039 19.0566 57.653 18.7887C58.0022 18.5207 58.2254 18.1797 58.3229 17.7656H63.6817V25H55.948ZM64.6804 5.05061H71.5859V9.53253H81.3658V25H74.4602V16.5964C74.4602 16.1823 74.3262 15.8372 74.0583 15.5612C73.7903 15.2851 73.4493 15.1471 73.0352 15.1471C72.6212 15.1471 72.2761 15.2851 72 15.5612C71.724 15.8372 71.5859 16.1823 71.5859 16.5964V25H64.6804V5.05061ZM92.5705 9.53253C93.3338 9.53253 94.0889 9.70709 94.8359 10.0562C95.5828 10.4054 96.2365 10.8601 96.7967 11.4203C97.3569 11.9805 97.8076 12.6341 98.1486 13.3811C98.4977 14.1281 98.6723 14.8832 98.6723 15.6464V25H82.2914V13.1497H87.772V9.53253H92.5705ZM88.6489 18.6181C88.6489 19.1134 88.8275 19.5356 89.1848 19.8848C89.542 20.2339 89.9723 20.4085 90.4757 20.4085C90.971 20.4085 91.3932 20.238 91.7424 19.897C92.0915 19.5478 92.2661 19.1215 92.2661 18.6181C92.2661 18.1066 92.0915 17.6763 91.7424 17.3272C91.4013 16.9699 90.9791 16.7913 90.4757 16.7913C89.9723 16.7913 89.542 16.9699 89.1848 17.3272C88.8275 17.6763 88.6489 18.1066 88.6489 18.6181ZM105.773 25C104.758 25 103.775 24.7118 102.825 24.1353C101.875 23.5507 101.108 22.7834 100.524 21.8334C99.947 20.8835 99.6588 19.901 99.6588 18.8861V9.53253H116.04V21.3828H110.559V25H105.773ZM106.065 15.9266C106.065 16.4381 106.24 16.8684 106.589 17.2175C106.938 17.5667 107.364 17.7412 107.868 17.7412C108.371 17.7412 108.797 17.5667 109.146 17.2175C109.504 16.8684 109.682 16.4381 109.682 15.9266C109.682 15.4313 109.504 15.0091 109.146 14.6599C108.797 14.3027 108.371 14.1241 107.868 14.1241C107.372 14.1241 106.946 14.3027 106.589 14.6599C106.24 15.0091 106.065 15.4313 106.065 15.9266ZM116.977 25V5.05061H124.139V25H116.977Z" fill="#FFD166"/>
<path d="M20.0067 28.4121V35.1959L17.8144 37.4003L17.9849 38.1188C18.2366 39.1662 18.2447 40.1406 18.0093 41.0418C17.7819 41.935 17.3516 42.6982 16.7183 43.3315L11.4326 48.6172C10.4014 49.6484 9.0617 50.164 7.41346 50.164H1.42133V43.3315L3.60139 41.1393L3.41871 40.4085C3.15889 39.3855 3.13859 38.4314 3.35781 37.5464C3.56892 36.6614 3.99113 35.9022 4.62444 35.2689L9.91017 29.9832C10.9576 28.9358 12.3298 28.4121 14.0267 28.4121H20.0067ZM20.1041 23.9302H27.7039V28.4121H37.4837V44.5738L31.8935 50.164H24.2937V47.9961L22.1136 50.164H14.5139V29.5082L20.1041 23.9302ZM55.1678 28.4121V44.5738L49.5775 50.164H32.1979V34.0023L37.7882 28.4121H45.3879V30.58L47.5558 28.4121H55.1678ZM81.633 28.4121V44.5738L76.0428 50.164H68.443V48.4954L66.7623 50.164H59.1625V48.4954L57.4818 50.164H49.882V34.0023L55.4722 28.4121H81.633ZM92.3506 28.4121C93.1788 28.4121 93.9988 28.5988 94.8108 28.9723C95.6227 29.3458 96.3291 29.837 96.9299 30.446C97.5308 31.0468 98.0179 31.7532 98.3914 32.5652C98.7649 33.3771 98.9517 34.1972 98.9517 35.0253V44.5738L93.3736 50.164H76.2863V37.6195L81.8644 32.0293H83.74L87.3572 28.4121H92.3506ZM116.977 28.4121L115.223 35.0253H116.879V44.5738L111.289 50.164H103.677V47.7403L101.254 50.164H93.6537V29.5082L99.244 23.9302H106.844V29.6422L108.074 28.4121H116.977ZM134.174 28.4121V40.9566L128.596 46.5468H126.72L123.103 50.164H118.109C117.281 50.164 116.461 49.9772 115.649 49.6037C114.837 49.2303 114.131 48.739 113.53 48.1301C112.929 47.5292 112.442 46.8228 112.069 46.0109C111.695 45.199 111.508 44.3789 111.508 43.5507V34.0023L117.099 28.4121H134.174ZM145.817 28.4121V35.1959L142.273 38.74V44.5738L136.683 50.164H128.827V34.0023L134.417 28.4121H145.817Z" fill="#C94949"/>
<path d="M5.28104 44.0908V37.3558H9.21489L7.8143 32.0944C7.49764 30.9414 7.40427 29.8778 7.53418 28.9035C7.66409 27.9291 7.96044 27.0888 8.42325 26.3824C8.88606 25.676 9.52749 25.1279 10.3476 24.7382C11.1676 24.3404 12.1054 24.1414 13.1609 24.1414H19.7985V30.8765H16.1813L17.6185 36.3571C17.927 37.4776 18.0123 38.5087 17.8742 39.4506C17.7362 40.3924 17.4358 41.2084 16.973 41.8986C16.5102 42.5887 15.8687 43.1287 15.0487 43.5184C14.2286 43.9 13.2908 44.0908 12.2353 44.0908H5.28104ZM20.6024 24.1414H27.5079V28.6233H37.2877V44.0908H30.3822V35.6872C30.3822 35.2731 30.2482 34.9281 29.9803 34.652C29.7123 34.3759 29.3713 34.2379 28.9572 34.2379C28.5431 34.2379 28.1981 34.3759 27.922 34.652C27.6459 34.9281 27.5079 35.2731 27.5079 35.6872V44.0908H20.6024V24.1414ZM54.9718 28.6233V44.0908H38.2864V28.6233H45.192V37.0269C45.192 37.441 45.326 37.7861 45.5939 38.0622C45.8618 38.3382 46.2029 38.4762 46.6169 38.4762C47.031 38.4762 47.3761 38.3382 47.6522 38.0622C47.9282 37.7861 48.0663 37.441 48.0663 37.0269V28.6233H54.9718ZM55.9705 44.0908V28.6233H81.437V44.0908H74.5315V35.4315C74.5315 35.0986 74.4178 34.8185 74.1905 34.5911C73.9631 34.3557 73.683 34.2379 73.3501 34.2379C73.0172 34.2379 72.733 34.3557 72.4976 34.5911C72.2702 34.8185 72.1565 35.0986 72.1565 35.4315V44.0908H65.251V35.4315C65.251 35.0986 65.1373 34.8185 64.91 34.5911C64.6907 34.3557 64.4147 34.2379 64.0818 34.2379C63.7489 34.2379 63.4647 34.3557 63.2293 34.5911C62.9938 34.8185 62.8761 35.0986 62.8761 35.4315V44.0908H55.9705ZM92.6296 28.6233C93.3929 28.6233 94.148 28.7979 94.8949 29.147C95.6419 29.4962 96.2955 29.9509 96.8558 30.5111C97.416 31.0713 97.8667 31.725 98.2077 32.4719C98.5568 33.2189 98.7314 33.974 98.7314 34.7373V44.0908H82.3505V32.2405H87.8311V28.6233H92.6296ZM88.708 37.709C88.708 38.2042 88.8866 38.6265 89.2438 38.9756C89.6011 39.3247 90.0314 39.4993 90.5348 39.4993C91.0301 39.4993 91.4523 39.3288 91.8015 38.9878C92.1506 38.6386 92.3252 38.2124 92.3252 37.709C92.3252 37.1974 92.1506 36.7671 91.8015 36.418C91.4604 36.0607 91.0382 35.8821 90.5348 35.8821C90.0314 35.8821 89.6011 36.0607 89.2438 36.418C88.8866 36.7671 88.708 37.1974 88.708 37.709ZM99.7422 44.0908V24.1414H106.648V32.9956C106.648 33.3773 106.745 33.6777 106.94 33.8969C107.143 34.1161 107.366 34.2257 107.61 34.2257C107.854 34.2257 108.073 34.1161 108.268 33.8969C108.471 33.6777 108.572 33.3773 108.572 32.9956V28.6233H116.622L114.881 35.2366H116.683V44.0908H109.766V39.9256H106.648V44.0908H99.7422ZM123.711 44.0908C122.696 44.0908 121.713 43.8026 120.763 43.2261C119.813 42.6415 119.046 41.8742 118.462 40.9243C117.885 39.9743 117.597 38.9918 117.597 37.9769V28.6233H133.978V40.4736H128.497V44.0908H123.711ZM124.003 35.0174C124.003 35.5289 124.178 35.9592 124.527 36.3084C124.876 36.6575 125.302 36.8321 125.806 36.8321C126.309 36.8321 126.735 36.6575 127.084 36.3084C127.442 35.9592 127.62 35.5289 127.62 35.0174C127.62 34.5221 127.442 34.0999 127.084 33.7508C126.735 33.3935 126.309 33.2149 125.806 33.2149C125.31 33.2149 124.884 33.3935 124.527 33.7508C124.178 34.0999 124.003 34.5221 124.003 35.0174ZM134.916 44.0908V28.6233H145.621V34.7129H142.077V44.0908H134.916Z" fill="#FFD166"/>
</svg>
