<svg width="754" height="263" viewBox="0 0 754 263" fill="none" xmlns="http://www.w3.org/2000/svg">
<g opacity="0.3">
<path d="M236.307 25.9229V133.516L207.234 162.651H162.356V151.733L151.438 162.651H106.434V151.733L95.5156 162.651H50.7012V54.9951L79.8369 25.9229H236.307ZM257.635 23.7012C264.025 23.7012 269.463 25.9863 273.948 30.5566C278.476 35.127 280.74 40.6283 280.74 47.0605C280.74 53.5352 278.497 59.0153 274.012 63.501L269.314 68.1348H278.836V133.516L249.7 162.651H208.758V97.2705L214.344 91.6846C209.308 86.945 206.79 81.2744 206.79 74.6729C206.79 71.5837 207.404 68.6003 208.631 65.7227C209.858 62.8451 211.551 60.3271 213.709 58.1689L241.258 30.5566C245.828 25.9863 251.287 23.7012 257.635 23.7012ZM366.053 49.2822V133.516L336.917 162.651H295.594C287.299 162.609 279.661 160.662 272.679 156.812C265.654 152.961 260.11 147.756 256.048 141.196C251.985 134.679 249.954 127.57 249.954 119.868C249.954 114.198 251.033 108.823 253.191 103.745C255.35 98.667 258.396 94.1602 262.332 90.2246L289.881 62.6758C294.028 58.444 298.979 55.1644 304.734 52.8369C310.532 50.4671 316.668 49.2822 323.143 49.2822H366.053ZM367.64 25.9229H407.249V49.2822H458.221V133.516L429.085 162.651H389.476V151.353L378.113 162.651H338.504V54.9951L367.64 25.9229ZM514.144 49.2822C518.46 49.2822 522.734 50.2555 526.966 52.2021C531.198 54.1488 534.879 56.709 538.011 59.8828C541.142 63.0143 543.681 66.696 545.628 70.9277C547.575 75.1595 548.548 79.4336 548.548 83.75V133.516L519.476 162.651H430.418V97.2705L459.49 68.1348H469.266L488.118 49.2822H514.144ZM638.938 49.2822V114.663L609.866 143.799H600.091L581.238 162.651H555.213C550.896 162.651 546.622 161.678 542.391 159.731C538.159 157.785 534.477 155.225 531.346 152.051C528.214 148.919 525.675 145.238 523.729 141.006C521.782 136.774 520.809 132.5 520.809 128.184V78.418L549.944 49.2822H638.938ZM681.15 25.9229V133.516L652.015 162.651H611.072V54.9951L640.208 25.9229H681.15Z" fill="#C94949"/>
<path d="M82.3525 131V27.0254H235.204V131H194.008V68.2217C194.008 65.6826 193.331 63.609 191.977 62.001C190.622 60.3506 188.887 59.5254 186.771 59.5254C184.783 59.5254 183.069 60.3506 181.63 62.001C180.191 63.6514 179.472 65.7249 179.472 68.2217V131H138.148V68.2217C138.148 65.6826 137.471 63.609 136.117 62.001C134.763 60.3506 133.049 59.5254 130.976 59.5254C128.86 59.5254 127.082 60.3506 125.644 62.001C124.247 63.609 123.549 65.6826 123.549 68.2217V131H82.3525ZM240.409 131V69.2373H277.733V131H240.409ZM238.441 45.5605C238.441 39.8477 240.473 34.96 244.535 30.8975C248.598 26.835 253.464 24.8037 259.135 24.8037C264.763 24.8037 269.587 26.835 273.607 30.8975C277.628 34.96 279.638 39.8477 279.638 45.5605C279.638 51.2311 277.628 56.0765 273.607 60.0967C269.587 64.1169 264.763 66.127 259.135 66.127C253.464 66.127 248.598 64.1169 244.535 60.0967C240.473 56.0342 238.441 51.1888 238.441 45.5605ZM324.643 131C318.76 130.958 313.153 129.879 307.821 127.763C302.532 125.604 297.961 122.727 294.11 119.13C290.302 115.533 287.255 111.28 284.97 106.371C282.727 101.42 281.605 96.236 281.605 90.8193C281.605 83.3714 283.51 76.5583 287.318 70.3799C291.169 64.1592 296.374 59.2715 302.934 55.7168C309.535 52.1621 316.771 50.3848 324.643 50.3848H364.95V88.0898H337.021C336.428 85.974 335.243 84.2389 333.466 82.8848C331.688 81.4883 329.657 80.79 327.372 80.79C324.664 80.79 322.336 81.7633 320.39 83.71C318.485 85.6143 317.533 87.9417 317.533 90.6924C317.533 93.4854 318.485 95.8551 320.39 97.8018C322.294 99.7484 324.621 100.722 327.372 100.722C329.657 100.722 331.71 100.023 333.529 98.627C335.349 97.2305 336.513 95.4531 337.021 93.2949H364.95V131H324.643ZM370.155 27.0254H406.146V50.3848H457.118V131H421.127V87.2012C421.127 85.043 420.429 83.2445 419.032 81.8057C417.636 80.3669 415.858 79.6475 413.7 79.6475C411.542 79.6475 409.743 80.3669 408.305 81.8057C406.866 83.2445 406.146 85.043 406.146 87.2012V131H370.155V27.0254ZM515.517 50.3848C519.494 50.3848 523.43 51.2946 527.323 53.1143C531.216 54.9339 534.623 57.3037 537.543 60.2236C540.463 63.1436 542.812 66.5501 544.589 70.4434C546.409 74.3366 547.318 78.2721 547.318 82.25V131H461.942V69.2373H490.507V50.3848H515.517ZM495.077 97.7383C495.077 100.32 496.008 102.52 497.87 104.34C499.732 106.16 501.975 107.069 504.599 107.069C507.18 107.069 509.381 106.181 511.2 104.403C513.02 102.584 513.93 100.362 513.93 97.7383C513.93 95.0723 513.02 92.8294 511.2 91.0098C509.423 89.1478 507.222 88.2168 504.599 88.2168C501.975 88.2168 499.732 89.1478 497.87 91.0098C496.008 92.8294 495.077 95.0723 495.077 97.7383ZM584.325 131C579.035 131 573.915 129.498 568.964 126.493C564.013 123.446 560.014 119.447 556.967 114.496C553.962 109.545 552.46 104.424 552.46 99.1348V50.3848H637.836V112.147H609.271V131H584.325ZM585.849 83.71C585.849 86.376 586.758 88.6188 588.578 90.4385C590.398 92.2581 592.619 93.168 595.243 93.168C597.867 93.168 600.089 92.2581 601.908 90.4385C603.77 88.6188 604.701 86.376 604.701 83.71C604.701 81.1286 603.77 78.9281 601.908 77.1084C600.089 75.2464 597.867 74.3154 595.243 74.3154C592.662 74.3154 590.44 75.2464 588.578 77.1084C586.758 78.9281 585.849 81.1286 585.849 83.71ZM642.724 131V27.0254H680.048V131H642.724Z" fill="#FFD166"/>
<path d="M97.3271 148.782V184.139L85.9014 195.628L86.79 199.373C88.1019 204.832 88.1442 209.91 86.917 214.607C85.7321 219.262 83.4893 223.24 80.1885 226.541L52.6396 254.09C47.2653 259.464 40.2829 262.151 31.6924 262.151H0.461914V226.541L11.8242 215.115L10.8721 211.307C9.5179 205.975 9.41211 201.002 10.5547 196.39C11.6549 191.777 13.8555 187.82 17.1562 184.52L44.7051 156.971C50.1641 151.512 57.3158 148.782 66.1602 148.782H97.3271ZM97.835 125.423H137.444V148.782H188.416V233.016L159.28 262.151H119.671V250.853L108.309 262.151H68.6992V154.495L97.835 125.423ZM280.584 148.782V233.016L251.448 262.151H160.867V177.918L190.003 148.782H229.612V160.081L240.911 148.782H280.584ZM418.519 148.782V233.016L389.383 262.151H349.773V253.455L341.014 262.151H301.404V253.455L292.645 262.151H253.035V177.918L282.171 148.782H418.519ZM474.378 148.782C478.694 148.782 482.968 149.756 487.2 151.702C491.432 153.649 495.114 156.209 498.245 159.383C501.377 162.514 503.916 166.196 505.862 170.428C507.809 174.66 508.782 178.934 508.782 183.25V233.016L479.71 262.151H390.652V196.771L419.725 167.635H429.5L448.353 148.782H474.378ZM602.728 148.782L593.587 183.25H602.22V233.016L573.084 262.151H533.411V249.52L520.779 262.151H481.17V154.495L510.306 125.423H549.915V155.193L556.326 148.782H602.728ZM692.356 148.782V214.163L663.284 243.299H653.509L634.656 262.151H608.631C604.314 262.151 600.04 261.178 595.809 259.231C591.577 257.285 587.895 254.725 584.764 251.551C581.632 248.419 579.093 244.738 577.146 240.506C575.2 236.274 574.227 232 574.227 227.684V177.918L603.362 148.782H692.356ZM753.04 148.782V184.139L734.568 202.61V233.016L705.433 262.151H664.49V177.918L693.626 148.782H753.04Z" fill="#C94949"/>
<path d="M20.5869 230.5V195.397H41.0898L33.79 167.976C32.1396 161.966 31.653 156.423 32.3301 151.345C33.0072 146.267 34.5518 141.887 36.9639 138.205C39.376 134.523 42.7191 131.667 46.9932 129.636C51.2673 127.562 56.1549 126.525 61.6562 126.525H96.251V161.628H77.3984L84.8887 190.192C86.4967 196.032 86.9411 201.407 86.2217 206.315C85.5023 211.224 83.9365 215.477 81.5244 219.074C79.1123 222.671 75.7692 225.485 71.4951 227.517C67.221 229.506 62.3333 230.5 56.832 230.5H20.5869ZM100.44 126.525H136.432V149.885H187.403V230.5H151.412V186.701C151.412 184.543 150.714 182.744 149.317 181.306C147.921 179.867 146.144 179.147 143.985 179.147C141.827 179.147 140.029 179.867 138.59 181.306C137.151 182.744 136.432 184.543 136.432 186.701V230.5H100.44V126.525ZM279.571 149.885V230.5H192.608V149.885H228.6V193.684C228.6 195.842 229.298 197.64 230.694 199.079C232.091 200.518 233.868 201.237 236.026 201.237C238.185 201.237 239.983 200.518 241.422 199.079C242.861 197.64 243.58 195.842 243.58 193.684V149.885H279.571ZM284.776 230.5V149.885H417.506V230.5H381.515V185.368C381.515 183.633 380.922 182.173 379.737 180.988C378.552 179.761 377.092 179.147 375.357 179.147C373.622 179.147 372.141 179.761 370.914 180.988C369.729 182.173 369.137 183.633 369.137 185.368V230.5H333.146V185.368C333.146 183.633 332.553 182.173 331.368 180.988C330.226 179.761 328.787 179.147 327.052 179.147C325.317 179.147 323.836 179.761 322.608 180.988C321.381 182.173 320.768 183.633 320.768 185.368V230.5H284.776ZM475.841 149.885C479.819 149.885 483.754 150.795 487.647 152.614C491.541 154.434 494.947 156.804 497.867 159.724C500.787 162.644 503.136 166.05 504.913 169.943C506.733 173.837 507.643 177.772 507.643 181.75V230.5H422.267V168.737H450.831V149.885H475.841ZM455.401 197.238C455.401 199.82 456.332 202.02 458.194 203.84C460.056 205.66 462.299 206.569 464.923 206.569C467.504 206.569 469.705 205.681 471.524 203.903C473.344 202.084 474.254 199.862 474.254 197.238C474.254 194.572 473.344 192.329 471.524 190.51C469.747 188.648 467.547 187.717 464.923 187.717C462.299 187.717 460.056 188.648 458.194 190.51C456.332 192.329 455.401 194.572 455.401 197.238ZM512.911 230.5V126.525H548.902V172.673C548.902 174.662 549.41 176.228 550.426 177.37C551.484 178.513 552.647 179.084 553.917 179.084C555.187 179.084 556.329 178.513 557.345 177.37C558.403 176.228 558.932 174.662 558.932 172.673V149.885H600.89L591.812 184.353H601.207V230.5H565.152V208.791H548.902V230.5H512.911ZM637.833 230.5C632.543 230.5 627.423 228.998 622.472 225.993C617.521 222.946 613.521 218.947 610.475 213.996C607.47 209.045 605.968 203.924 605.968 198.635V149.885H691.344V211.647H662.779V230.5H637.833ZM639.356 183.21C639.356 185.876 640.266 188.119 642.086 189.938C643.906 191.758 646.127 192.668 648.751 192.668C651.375 192.668 653.596 191.758 655.416 189.938C657.278 188.119 658.209 185.876 658.209 183.21C658.209 180.629 657.278 178.428 655.416 176.608C653.596 174.746 651.375 173.815 648.751 173.815C646.17 173.815 643.948 174.746 642.086 176.608C640.266 178.428 639.356 180.629 639.356 183.21ZM696.231 230.5V149.885H752.027V181.623H733.556V230.5H696.231Z" fill="#FFD166"/>
</g>
</svg>
