<svg width="55" height="54" viewBox="0 0 55 54" fill="none" xmlns="http://www.w3.org/2000/svg">
<path d="M38.4072 13.9895V35.0942L32.7046 40.8093H23.9016V38.6677L21.76 40.8093H12.9321V38.6677L10.7905 40.8093H2V19.6921L7.71509 13.9895H38.4072Z" fill="#C94949"/>
<path d="M54.0583 13.9895V21.5847L51.207 24.4609L51.8171 26.864C52.1741 28.2834 52.2363 29.5784 52.0039 30.7488C51.7715 31.9109 51.2693 32.8862 50.4973 33.6748L45.0935 39.0786C43.9148 40.2324 42.3584 40.8093 40.4243 40.8093H32.7917V33.2141L35.9045 30.0764L35.4189 28.1589C35.0371 26.6731 34.9666 25.3325 35.2073 24.1372C35.448 22.9336 35.9626 21.9292 36.7512 21.124L42.155 15.6953C43.342 14.5581 44.8818 13.9895 46.7744 13.9895H54.0583Z" fill="#C94949"/>
<path d="M8.41431 33.395V13H38.3967V33.395H30.3159V21.0808C30.3159 20.5828 30.1831 20.176 29.9175 19.8606C29.6519 19.5369 29.3115 19.375 28.8965 19.375C28.5063 19.375 28.1702 19.5369 27.8879 19.8606C27.6057 20.1843 27.4646 20.5911 27.4646 21.0808V33.395H19.3589V21.0808C19.3589 20.5828 19.2261 20.176 18.9604 19.8606C18.6948 19.5369 18.3586 19.375 17.9519 19.375C17.5369 19.375 17.1882 19.5369 16.906 19.8606C16.6321 20.176 16.4951 20.5828 16.4951 21.0808V33.395H8.41431Z" fill="#FFD166"/>
<path d="M39.2185 33.395V26.5095H43.2402L41.8083 21.1306C41.4846 19.9519 41.3892 18.8645 41.522 17.8684C41.6548 16.8723 41.9578 16.0132 42.4309 15.291C42.9041 14.5688 43.5598 14.0085 44.3982 13.6101C45.2366 13.2034 46.1953 13 47.2744 13H54.0603V19.8855H50.3623L51.8315 25.4885C52.147 26.634 52.2341 27.6882 52.093 28.6511C51.9519 29.614 51.6448 30.4482 51.1716 31.1538C50.6985 31.8594 50.0427 32.4114 49.2043 32.8098C48.366 33.2 47.4072 33.395 46.3281 33.395H39.2185Z" fill="#FFD166"/>
</svg>
