<svg width="41" height="40" viewBox="0 0 41 40" fill="none" xmlns="http://www.w3.org/2000/svg">
<rect width="40.0561" height="40" rx="20" fill="#4B4545"/>
<path d="M20.0566 20C20.0566 17.7909 21.8475 16 24.0566 16C26.2658 16 28.0566 17.7909 28.0566 20C28.0566 22.2092 26.2657 24 24.0566 24C21.8475 24 20.0566 22.2091 20.0566 20Z" fill="#00BCFF"/>
<path d="M12.0566 28.0004C12.0566 25.7913 13.8475 24.0004 16.0566 24.0004L18.1883 22.875L20.0566 24.0004V28.0004C20.0566 30.2096 18.2657 32.0004 16.0566 32.0004C13.8475 32.0004 12.0566 30.2095 12.0566 28.0004Z" fill="#00CF7F"/>
<path d="M20.0555 8L17.8789 11.7814L20.0555 16H23.9994C26.2085 16 27.9994 14.2091 27.9994 12C27.9994 9.79086 26.2085 8 23.9994 8H20.0555Z" fill="#FF7361"/>
<path d="M12 12C12 14.2091 13.7909 16 16 16L18.1219 16.8195L20.0561 16V8H15.9999C13.7909 8 12 9.79086 12 12Z" fill="#FF4D12"/>
<path d="M12.0566 20C12.0566 22.2092 13.8475 24 16.0566 24H20.0566V16H16.0566C13.8475 16 12.0566 17.7909 12.0566 20Z" fill="#B659FF"/>
</svg>
