<svg width="41" height="40" viewBox="0 0 41 40" fill="none" xmlns="http://www.w3.org/2000/svg">
<rect width="40.0561" height="40" rx="20" fill="#4B4545"/>
<g clip-path="url(#clip0_312_206)">
<path d="M30.8183 28.9521C30.8227 29.8054 30.4608 30.6196 29.8243 31.1879C29.1878 31.7563 28.338 32.0241 27.4907 31.9235C25.9659 31.6978 24.8485 30.3709 24.8857 28.83V11.1137C24.8488 9.57105 25.969 8.2435 27.4958 8.0202C28.3423 7.92111 29.1907 8.18968 29.826 8.75785C30.4613 9.32602 30.8226 10.1393 30.8183 10.9916V28.9521Z" fill="#F9AB00"/>
<path d="M12.1499 26.0162C13.7881 26.0162 15.1162 27.3442 15.1162 28.9825C15.1162 30.6207 13.7881 31.9487 12.1499 31.9487C10.5116 31.9487 9.18359 30.6207 9.18359 28.9825C9.18359 27.3442 10.5116 26.0162 12.1499 26.0162ZM19.9548 17.0257C18.3088 17.116 17.0318 18.4966 17.0699 20.1447V28.1124C17.0699 30.2748 18.0214 31.5875 19.4155 31.8673C20.2907 32.0447 21.1993 31.8191 21.8898 31.2528C22.5803 30.6866 22.9796 29.8398 22.9771 28.9468V20.0073C22.9785 19.209 22.6593 18.4436 22.091 17.883C21.5227 17.3223 20.753 17.0135 19.9548 17.0257Z" fill="#E37400"/>
</g>
<defs>
<clipPath id="clip0_312_206">
<rect width="24" height="24" fill="white" transform="translate(8 8)"/>
</clipPath>
</defs>
</svg>
